# xmcd CD database file generated by OrangeCD 5.0
#
# Track frame offsets:
#	182
#	11492
#	26712
#	35277
#	46632
#	61955
#	78880
#	91092
#	101640
#	111252
#	120957
#	130180
#	140875
#	150127
#
# Disc length: 2210 seconds
#
# Revision: 0
# Processed by: cddbd v1.4PL0 Copyright (c) Steve Scherf et al.
# Submitted via: OrangeCD 5.0
#
DISCID=9f08a00e
DTITLE=Boxcar Willie - The Country Store Collection
DYEAR=1988
DGENRE=Country
TTITLE0=I gotta travel on
TTITLE1=The wayward wind
TTITLE2=If you've got the money
TTITLE3=When my blue moon turns to gold again
TTITLE4=I love you because
TTITLE5=Have I told you lately that I love you
TTITLE6=Packy
TTITLE7=Jambalaya
TTITLE8=Movin' on
TTITLE9=Walking the floor over you
TTITLE10=Mama tried
TTITLE11=Rock island line
TTITLE12=Baby we're really in love
TTITLE13=Will the circle be unbroken
EXTD=
EXTT0=
EXTT1=
EXTT2=
EXTT3=
EXTT4=
EXTT5=
EXTT6=
EXTT7=
EXTT8=
EXTT9=
EXTT10=
EXTT11=
EXTT12=
EXTT13=
PLAYORDER=
